<svg xmlns="http://www.w3.org/2000/svg" xmlns:xlink="http://www.w3.org/1999/xlink" viewBox="0,0,256,256" width="32px" height="32px"><g fill="rgb(26 86 219)" fill-rule="nonzero" stroke="none" stroke-width="1" stroke-linecap="butt" stroke-linejoin="miter" stroke-miterlimit="10" stroke-dasharray="" stroke-dashoffset="0" font-family="none" font-weight="none" font-size="none" text-anchor="none" style="mix-blend-mode: normal"><g transform="scale(5.12,5.12)"><path d="M25,2c-12.682,0 -23,10.318 -23,23c0,12.683 10.318,23 23,23c12.683,0 23,-10.317 23,-23c0,-12.682 -10.317,-23 -23,-23zM35.827,16.562l-11.511,16.963l-8.997,-8.349c-0.405,-0.375 -0.429,-1.008 -0.053,-1.413c0.375,-0.406 1.009,-0.428 1.413,-0.053l7.29,6.764l10.203,-15.036c0.311,-0.457 0.933,-0.575 1.389,-0.266c0.458,0.31 0.577,0.932 0.266,1.39z"/></g></g></svg>
